<?xml version="1.0" encoding="UTF-8" standalone="no"?>
<!-- Created with Inkscape (http://www.inkscape.org/) -->

<svg
   xmlns:dc="http://purl.org/dc/elements/1.1/"
   xmlns:cc="http://creativecommons.org/ns#"
   xmlns:rdf="http://www.w3.org/1999/02/22-rdf-syntax-ns#"
   xmlns:svg="http://www.w3.org/2000/svg"
   xmlns="http://www.w3.org/2000/svg"
   xmlns:sodipodi="http://sodipodi.sourceforge.net/DTD/sodipodi-0.dtd"
   xmlns:inkscape="http://www.inkscape.org/namespaces/inkscape"
   width="37mm"
   height="26mm"
   viewBox="0 0 131.10236 92.125983"
   id="svg6085"
   version="1.1"
   inkscape:version="0.91 r13725"
   sodipodi:docname="Shopping-Cart.svg">
  <defs
     id="defs6087" />
  <sodipodi:namedview
     id="base"
     pagecolor="#ffffff"
     bordercolor="#666666"
     borderopacity="1.0"
     inkscape:pageopacity="0.0"
     inkscape:pageshadow="2"
     inkscape:zoom="1.4"
     inkscape:cx="-115.01298"
     inkscape:cy="153.29142"
     inkscape:document-units="px"
     inkscape:current-layer="layer1"
     showgrid="false"
     inkscape:window-width="1920"
     inkscape:window-height="1017"
     inkscape:window-x="-8"
     inkscape:window-y="-8"
     inkscape:window-maximized="1" />
  <metadata
     id="metadata6090">
    <rdf:RDF>
      <cc:Work
         rdf:about="">
        <dc:format>image/svg+xml</dc:format>
        <dc:type
           rdf:resource="http://purl.org/dc/dcmitype/StillImage" />
        <dc:title></dc:title>
      </cc:Work>
    </rdf:RDF>
  </metadata>
  <g
     inkscape:label="Laag 1"
     inkscape:groupmode="layer"
     id="layer1"
     transform="translate(0,-960.23623)">
    <path
       style="opacity:1;fill:#6c5353;fill-opacity:0.94509804;fill-rule:nonzero;stroke:none;stroke-width:1.58158517;stroke-miterlimit:4;stroke-dasharray:1.58158517, 3.16317034;stroke-dashoffset:0;stroke-opacity:1"
       d=""
       id="path6839"
       inkscape:connector-curvature="0"
       transform="translate(0,960.23623)" />
    <g
       id="g6843"
       transform="matrix(1.2775933,0,0,1.3601077,21.144892,-34.812988)">
      <path
         inkscape:connector-curvature="0"
         id="path6835"
         d="m 4.9810853,782.66623 c -0.68607,-0.63628 -1.25838,-1.20449 -1.27181,-1.26269 -0.0134,-0.0582 -1.43395,-9.76542 -3.15672003,-21.57157 l -3.13231997,-21.46575 -5.38151,-0.14287 c -6.1604503,-0.16354 -7.2161103,-0.69063 -5.7782703,-2.88506 0.81887,-1.24976 0.91473,-1.26521 7.8471203,-1.26521 3.85996,0 7.37763,0.13795 7.81703,0.30657 0.43941,0.16862 0.79893,0.84119 0.79893,1.4946 0,0.65341 0.25491,2.90194 0.56647,4.99672 l 0.56648,3.80871 25.9729797,0 25.97299,0 1.23465,1.23464 c 1.30835,1.30835 1.24679,2.53623 -0.18499,3.68985 -0.60387,0.48656 -6.68388,0.63135 -26.51201,0.63135 l -25.7284397,0 0.31307,1.89403 c 0.17218,1.04172 0.31556,2.17814 0.31862,2.52538 0.004,0.49295 3.88078,0.63135 17.6832297,0.63135 17.00423,0 17.71615,0.0385 18.68782,1.01015 1.25822,1.25822 1.28999,2.62065 0.0865,3.70979 -0.82154,0.74348 -2.83177,0.8359 -18.18275,0.8359 -18.9442997,0 -17.7728597,-0.20082 -16.9407497,2.90419 l 0.30455,1.13642 29.3617897,-0.004 29.36178,-0.004 4.89223,-10.98147 c 2.69073,-6.03981 5.04471,-11.37922 5.23107,-11.86535 0.32027,-0.83543 -1.24054,-0.88389 -28.46788,-0.88389 l -28.80673,0 -1.04681,-1.3308 c -1.69964,-2.16074 -1.19672,-4.31783 1.3191,-5.65776 1.21641,-0.64787 58.57953,-0.80442 62.7823,-0.17134 1.56079,0.23511 2.31788,0.61009 2.43218,1.20464 0.15853,0.82463 -14.08054,33.8123 -15.16097,35.12342 -0.40566,0.49228 -7.19463,0.63134 -30.82118,0.63134 l -30.3009297,0 0.3612,2.90419 c 0.19867,1.59731 0.46555,3.07465 0.59309,3.283 0.12753,0.20834 13.5929997,0.3788 29.9232797,0.3788 28.12311,0 29.73556,0.0488 30.52731,0.92366 1.00269,1.10796 1.05865,3.03356 0.12397,4.26546 -0.63631,0.83865 -2.67213,0.90328 -31.81904,1.01016 l -31.1392297,0.11418 -1.2474,-1.15686 z"
         style="opacity:1;fill:#6c5353;fill-opacity:0.94509804;fill-rule:nonzero;stroke:none;stroke-width:1.58158517;stroke-miterlimit:4;stroke-dasharray:1.58158517, 3.16317034;stroke-dashoffset:0;stroke-opacity:1" />
      <path
         inkscape:connector-curvature="0"
         id="path6837"
         d="m 4.8817153,792.39574 c -1.63377,-1.63377 -1.76011,-1.97033 -1.52445,-4.0611 0.39845,-3.535 1.36397,-4.25901 5.67972,-4.25901 4.3157497,0 5.2812797,0.72401 5.6797197,4.25901 0.23566,2.09077 0.10933,2.42733 -1.52445,4.0611 -1.53313,1.53313 -2.11226,1.78141 -4.1552697,1.78141 -2.04301,0 -2.62214,-0.24828 -4.15527,-1.78141 z"
         style="opacity:1;fill:#6c5353;fill-opacity:0.94509804;fill-rule:nonzero;stroke:none;stroke-width:1.58158517;stroke-miterlimit:4;stroke-dasharray:1.58158517, 3.16317034;stroke-dashoffset:0;stroke-opacity:1" />
      <path
         inkscape:connector-curvature="0"
         id="path6841"
         d="m 63.534715,792.45989 c -3.57962,-3.57962 -1.60379,-8.37231 3.74401,-9.08168 2.21908,-0.29435 2.96872,-0.17957 4.3327,0.66341 3.29977,2.03937 3.79065,5.7433 1.11568,8.41827 -1.55126,1.55127 -1.99555,1.71726 -4.59619,1.71726 -2.60065,0 -3.04494,-0.16599 -4.5962,-1.71726 z"
         style="opacity:1;fill:#6c5353;fill-opacity:0.94509804;fill-rule:nonzero;stroke:none;stroke-width:1.58158517;stroke-miterlimit:4;stroke-dasharray:1.58158517, 3.16317034;stroke-dashoffset:0;stroke-opacity:1" />
    </g>
  </g>
</svg>
